#N canvas 656 97 1251 733 10;
#X text -203 -313 IMPORTANT - to get started you need to set up your
midi inputs. 1 - select media from the pd-extended menu 2 - Select
the MIDI settings option 3 - if "Input device 1:" = none -press the
button and select your keyboard. 4 - click apply and then ok;
#X obj -98 -192 notein;
#X floatatom -65 -164 5 0 0 3 Channel - -;
#X floatatom -173 -125 5 0 0 3 Note_Number - -;
#X floatatom -92 -124 5 0 0 3 Velocity - -;
#X obj -174 -69 mtof;
#X floatatom -173 -28 5 0 0 3 frequency - -;
#X text -49 -196 comment;
#X floatatom -91 -28 5 0 0 3 gain - -;
#X obj -92 -69 / 127;
#X text -22 -119 <- Velocity is a number between 0 and 127;
#X text -216 -365 This as an example of a synth that generates a sine
wave with asimple envelope;
#X text -114 74;
#X obj -172 29 osc~;
#X obj -173 89 *~;
#X obj -175 153 dac~;
#X text -136 90 <- this multiplies the osc output by the gain value
(0 > 1.0);
#X text -26 -67 <- this objects divides the velocity by 128 - this
wil then output a number between 0 and 1 - we could use this to provide
a rougth volume envelope;
#X connect 1 0 3 0;
#X connect 1 1 4 0;
#X connect 1 2 2 0;
#X connect 3 0 5 0;
#X connect 4 0 9 0;
#X connect 5 0 6 0;
#X connect 6 0 13 0;
#X connect 8 0 14 1;
#X connect 9 0 8 0;
#X connect 13 0 14 0;
#X connect 14 0 15 0;
#X connect 14 0 15 1;
#X coords 0 733 1 732 85 60 0;
