#N canvas 989 320 780 589 10;
#X obj 122 163 line;
#X floatatom 121 204 5 0 0 0 - - -;
#X msg 119 79 0 1000;
#X msg 161 109 1 1000;
#X obj 64 163 osc~ 200;
#X obj 64 289 dac~;
#X obj 64 240 *~;
#X text 13 9 line is used to ramp up or down a value \, this can be
used to change the gain of a signal over time. The patch below could
be used as a basic attach/decay envelop;
#X text 220 110 <- ramp to 1 in 1000ms (note on);
#X text 167 78 <- ramp to 0 in 1000ms (note off);
#X connect 0 0 1 0;
#X connect 1 0 6 1;
#X connect 2 0 0 0;
#X connect 3 0 0 0;
#X connect 4 0 6 0;
#X connect 6 0 5 0;
