#N canvas 480 351 1070 423 10;
#X obj 329 48 osc~ 1000;
#X obj 358 132 *~;
#X floatatom 392 98 5 0 0 0 - - -;
#X obj 358 245 vu 15 120 empty empty -1 -8 0 10 -66577 -1 1 0;
#X obj 354 192 pvu~;
#X obj 498 47 vsl 15 128 0 1 0 0 empty empty empty 0 -9 0 10 -262144
-1 -1 9800 1;
#X text 107 46 osc~ outputs a sine wave at 1Khz ->;
#X text 30 131 *~ mutiplies the audio stream by the slider output ->
;
#X text 11 -21 In this example we look at generating a sine wave \,
and routing it through gain and a meter. Try moving the slider to see
the effect on the audio stream;
#X obj 292 194 dac~;
#X text 519 59 < - vslider is set to output between 0 and 1 \, it is
also set to log mode;
#X connect 0 0 1 0;
#X connect 1 0 4 0;
#X connect 1 0 9 0;
#X connect 2 0 1 1;
#X connect 4 0 3 0;
#X connect 5 0 2 0;
